<svg version="1.0" xmlns="http://www.w3.org/2000/svg"
 width="512" height="512" viewBox="0 -76.5 376 376"
 preserveAspectRatio="xMidYMid meet">
<defs>
  <filter id="white-glow" x="-20%" y="-20%" width="140%" height="140%">
    <feFlood flood-color="white" result="flood" />
    <feComposite in="flood" in2="SourceAlpha" operator="in" result="mask" />
    <feGaussianBlur in="mask" stdDeviation="15" result="blur" />
    <feComponentTransfer in="blur" result="glow">
      <feFuncA type="linear" slope="2" />
    </feComponentTransfer>
    <feMerge>
      <feMergeNode in="glow" />
      <feMergeNode in="SourceGraphic" />
    </feMerge>
  </filter>
</defs>
<style>
  .icon-path { fill: #2846A7; }
  @media (prefers-color-scheme: dark) {
    .icon-path { filter: url(#white-glow); }
  }
</style>
<g transform="translate(0.000000,223.000000) scale(0.100000,-0.100000)"
 class="icon-path" stroke="none">
<path d="M1615 2058 c-137 -94 -448 -306 -690 -469 -242 -164 -484 -328 -537
 -364 -237 -162 -339 -304 -368 -507 -17 -117 10 -283 62 -380 65 -123 245
 -250 413 -292 134 -34 226 -36 1415 -36 1285 0 1302 1 1445 55 201 75 343 225
 380 402 28 132 15 292 -33 403 -30 69 -105 162 -179 223 -38 30 -187 135 -333
 232 -146 98 -333 225 -417 282 -84 56 -158 103 -166 103 -7 0 -58 -30 -112
 -67 -94 -64 -100 -70 -100 -102 0 -35 2 -36 439 -328 242 -161 462 -314 488
 -340 27 -26 61 -73 76 -103 24 -48 27 -67 27 -150 0 -85 -3 -100 -27 -141 -53
 -90 -142 -154 -261 -187 -57 -16 -155 -17 -1247 -17 l-1185 0 -80 27 c-140 48
 -201 101 -258 226 -16 36 -21 67 -22 132 0 76 3 92 32 150 18 36 49 81 70 101
 21 21 304 220 628 445 880 607 949 656 963 673 7 9 12 30 10 46 -2 25 -18 41
 -86 93 -46 34 -86 62 -90 62 -4 0 -119 -77 -257 -172z m420 13 c-6 -5 -183
 -128 -395 -273 -1190 -817 -1192 -818 -1243 -883 -50 -63 -66 -100 -83 -195
 l-13 -75 5 70 c10 132 71 220 233 339 48 34 367 255 711 491 344 235 659 452
 700 481 66 47 112 71 85 45z m818 -805 c562 -373 583 -394 601 -582 5 -56 5
 -55 -12 21 -23 102 -47 147 -114 211 -29 28 -246 181 -483 339 -236 158 -434
 291 -439 296 -36 33 56 -26 447 -285z m-2536 -663 c-3 -10 -5 -4 -5 12 0 17 2
 24 5 18 2 -7 2 -21 0 -30z m-163 -300 c101 -109 265 -187 443 -213 55 -8 459
 -10 1353 -8 l1275 3 88 28 c99 31 173 66 232 109 l40 30 -40 -37 c-49 -45
 -177 -108 -265 -130 -35 -9 -116 -21 -180 -26 -153 -11 -2251 -11 -2410 1
 -145 11 -243 36 -355 90 -124 59 -257 193 -279 280 -4 14 3 5 16 -19 12 -24
 49 -73 82 -108z m3496 14 c0 -2 -10 -12 -22 -23 l-23 -19 19 23 c18 21 26 27
 26 19z m-1793 -223 c-3 -3 -12 -4 -19 -1 -8 3 -5 6 6 6 11 1 17 -2 13 -5z"/>
<path d="M2084 1859 c-82 -55 -270 -183 -419 -284 -148 -101 -445 -302 -660
 -446 -214 -144 -407 -278 -428 -298 -57 -53 -77 -99 -76 -173 1 -79 15 -120
 58 -164 65 -65 15 -63 1276 -68 657 -3 1171 -1 1212 4 113 14 175 54 208 132
 21 51 19 134 -4 185 -25 53 -65 84 -354 273 -131 85 -329 215 -440 289 -111
 73 -210 136 -220 138 -11 4 -57 -20 -122 -63 -103 -68 -125 -93 -111 -129 3
 -8 97 -75 208 -148 112 -73 287 -188 391 -256 103 -68 187 -127 187 -132 0 -4
 -15 -11 -32 -14 -50 -9 -1801 -1 -1816 8 -7 5 -9 14 -4 23 8 15 321 228 1080
 736 433 290 451 305 425 347 -12 20 -182 141 -197 141 -7 0 -80 -45 -162 -101z
 m355 -53 c-7 -7 -688 -465 -1125 -756 -240 -161 -405 -277 -411 -291 -7 -13
 -12 -19 -12 -13 -2 29 66 80 441 333 628 422 1103 737 1107 734 2 -2 2 -5 0
 -7z m19 -798 c260 -173 372 -253 371 -266 0 -12 -2 -13 -6 -4 -3 8 -181 131
 -397 274 -215 143 -398 267 -406 275 -26 27 52 -23 438 -279z m-1834 -491 l41
 -22 1220 0 1220 0 45 24 c25 13 54 31 65 40 l20 16 -20 -24 c-32 -37 -89 -61
 -173 -72 -50 -6 -473 -9 -1207 -7 -1020 3 -1135 5 -1178 20 -55 19 -112 59
 -128 91 -8 16 -2 12 22 -11 18 -19 51 -43 73 -55z"/>
</g>
</svg>
